<svg width="255" height="206" viewBox="0 0 255 206" fill="none" xmlns="http://www.w3.org/2000/svg">
<g clip-path="url(#clip0_18_40)">
<path opacity="0.85" d="M246.334 130.21H193.005C191.518 130.21 190.313 129.005 190.313 127.519V7.7831C190.313 6.29691 191.518 5.09203 193.005 5.09203H246.334C247.82 5.09203 249.025 6.29691 249.025 7.7831L249.025 127.519C249.025 129.005 247.82 130.21 246.334 130.21Z" stroke="black" stroke-width="11"/>
<path opacity="0.85" d="M15.6627 130.225C10.2858 130.225 5.88327 126.048 5.52372 120.762V120.055V103.744C5.52372 97.106 6.86117 90.5408 9.45699 84.4387C9.45702 84.4387 9.45704 84.4386 9.45706 84.4386L36.5287 20.8076C40.5834 11.277 49.9375 5.09192 60.2867 5.09192H161.703C162.99 5.09192 164.03 6.13202 164.03 7.41931V122.735C164.03 129.583 161.307 136.153 156.455 141.006C156.455 141.007 156.454 141.007 156.454 141.008L100.328 197.086C100.328 197.086 100.328 197.086 100.328 197.087C96.3552 201.053 89.9276 201.053 85.9556 197.086L85.1753 196.305C82.6516 193.782 81.6357 190.112 82.5023 186.65L92.4872 146.798C92.4874 146.797 92.4877 146.796 92.488 146.795C94.6005 138.376 88.2284 130.225 79.5548 130.225H15.6627Z" stroke="black" stroke-width="11"/>
</g>
<defs>
<clipPath id="clip0_18_40">
<rect width="255" height="206" fill="white"/>
</clipPath>
</defs>
</svg>
